<svg width="326" height="72" viewBox="0 0 326 72" fill="none" xmlns="http://www.w3.org/2000/svg">
<g filter="url(#filter0_d_12_21)">
<path d="M29.749 1.79297C20.4145 1.79297 12.445 7.65784 9.33643 15.9092V15.8739C9.06344 16.5344 8.58791 17.4678 7.76014 18.4101C7.10849 19.1498 6.44803 19.6694 5.91086 20.0216C5.85802 20.0568 5.79638 20.0921 5.74354 20.1273C4.73084 20.823 4.07038 21.9854 4.07038 23.2975C4.07038 23.6057 4.10561 23.9139 4.18486 24.2221C4.25531 24.5127 4.36098 24.8033 4.50188 25.0675C4.64278 25.3317 4.81009 25.5783 4.99502 25.8072C5.17995 26.0362 5.40891 26.2299 5.64667 26.406C5.88444 26.5822 6.14862 26.7319 6.42161 26.8463C6.60654 26.9256 6.80027 26.9872 6.99401 27.0401C7.1261 27.0753 7.25819 27.0929 7.39028 27.1105C7.52237 27.1281 7.65447 27.1369 7.76894 27.1898C7.8482 27.2338 7.92745 27.2955 7.97149 27.3747C8.01552 27.4452 8.04193 27.5332 8.05074 27.6213C8.06835 27.7798 8.05074 27.9383 8.05074 28.0968C8.05074 28.2289 8.03313 28.3698 8.02432 28.5019C7.9979 28.8101 7.95387 29.1183 7.90104 29.4177C7.83939 29.77 7.75133 30.1134 7.65447 30.448C7.53999 30.8267 7.39909 31.1966 7.24058 31.5576C7.10849 31.8482 6.95878 32.1388 6.80027 32.4206C6.03414 33.7503 5.09189 34.6309 4.43143 35.1505C2.60857 36.489 1.56945 38.8403 2.14184 41.3764C2.6526 43.6396 4.44904 45.392 6.72102 45.8499C7.09087 45.9204 7.46073 45.9644 7.83939 45.9732C8.21806 45.982 8.55269 45.9556 8.91374 45.9028C9.27479 45.8499 9.59181 45.7619 9.92644 45.6562C10.2611 45.5505 10.5605 45.4096 10.8599 45.2423C10.8863 45.2247 10.9127 45.2071 10.9479 45.1983C11.1945 45.0838 11.4939 45.1542 11.6612 45.3656C11.7141 45.436 11.7317 45.5153 11.7581 45.5945C11.7933 45.6826 11.8198 45.7707 11.855 45.8587C11.9254 46.0436 11.9871 46.2198 12.0575 46.4047C12.1896 46.7658 12.3305 47.118 12.4714 47.4702C12.6123 47.8137 12.7532 48.1571 12.8941 48.5006C13.035 48.844 13.1759 49.1698 13.3256 49.5044C13.4753 49.8391 13.6162 50.1473 13.7659 50.4731C13.9156 50.7989 14.0565 51.0984 14.2062 51.4066C14.3559 51.7148 14.4968 52.0054 14.6465 52.3048C14.7962 52.6042 14.9371 52.886 15.0868 53.1678C15.2365 53.4496 15.3774 53.7226 15.5271 53.9956C15.6768 54.2686 15.8177 54.5239 15.9674 54.7969C16.1171 55.0699 16.258 55.3077 16.3989 55.5631C16.5398 55.8184 16.6807 56.0474 16.8216 56.294C16.9625 56.5405 17.1034 56.7519 17.2443 56.9808C17.3764 57.201 17.5173 57.4211 17.6494 57.6325C17.7815 57.8438 17.9136 58.0464 18.0457 58.2489C18.169 58.4426 18.301 58.6364 18.4243 58.8301C18.5476 59.015 18.6709 59.1912 18.7942 59.3761C18.9087 59.5434 19.0231 59.7107 19.1464 59.8868C19.2521 60.0454 19.3666 60.2039 19.4811 60.3536C19.5867 60.4945 19.6836 60.6442 19.7893 60.7851C19.8861 60.9172 19.983 61.0493 20.0799 61.1813C20.1679 61.2958 20.256 61.4191 20.3441 61.5336C20.3529 61.5512 20.3705 61.56 20.3793 61.5776C22.1053 63.8672 23.7256 65.6548 24.932 66.9229C26.0152 68.0677 27.5475 68.781 29.247 68.781C32.5317 68.781 35.2 66.1128 35.2 62.8281C35.2 62.5375 35.1824 62.2469 35.1383 61.9651C35.1295 61.9034 35.1207 61.8418 35.1119 61.7802C34.9798 60.9524 34.8565 59.8516 34.8301 58.5747C34.8037 57.201 34.7773 54.0572 36.1422 50.3674C38.1324 44.9693 41.8222 41.8872 43.1959 40.7688C43.328 40.6631 43.4425 40.5751 43.5129 40.5134C48.4179 36.5154 51.5529 30.4216 51.5529 23.5969C51.5617 11.5589 41.7957 1.79297 29.749 1.79297ZM8.01552 27.1546C8.01552 27.1546 8.01552 27.1457 8.01552 27.1369C8.01552 27.1369 8.01552 27.1457 8.01552 27.1546ZM8.26209 19.8719C8.2797 19.7486 8.30612 19.6165 8.33254 19.4932C8.47343 19.5109 8.60552 19.5285 8.73762 19.5637L8.69359 19.8279C8.55269 19.8455 8.40298 19.8543 8.26209 19.8719ZM8.76404 34.217C8.75523 34.1642 8.74642 34.1026 8.73762 34.0497C8.74642 34.0497 8.76403 34.0497 8.77284 34.0497L8.79045 34.1994C8.79045 34.1994 8.77284 34.1994 8.76404 34.1994V34.217ZM29.7578 33.7679C29.705 33.7679 29.6609 33.7679 29.6169 33.7679C26.4907 33.7239 23.6992 32.2709 21.8675 30.0077C20.5818 28.4314 19.7717 26.4589 19.622 24.3102C19.2081 18.2604 24.1835 13.1705 30.2421 13.4523C35.6315 13.6988 39.9288 18.1547 39.9288 23.6057C39.9288 29.0567 35.3761 33.7679 29.7666 33.7679H29.7578Z" fill="white"/>
<path d="M8.7392 19.5548L8.69517 19.819C8.55427 19.8366 8.40457 19.8454 8.26367 19.863C8.28128 19.7398 8.3077 19.6077 8.33412 19.4844C8.47502 19.502 8.60711 19.5196 8.7392 19.5548Z" fill="white"/>
<path d="M43.5212 40.5234C43.4158 40.6113 43.3105 40.6903 43.2051 40.7781C43.3368 40.6727 43.451 40.5849 43.5212 40.5234Z" fill="white"/>
<path d="M8.79112 34.2103C8.79112 34.2103 8.77351 34.2103 8.7647 34.2103C8.75589 34.1574 8.74709 34.0958 8.73828 34.043C8.74709 34.043 8.7647 34.043 8.77351 34.043L8.79112 34.1927V34.2103Z" fill="white"/>
<path d="M48.4459 56.0605C48.4547 58.262 46.6759 60.0584 44.4743 60.0672C42.5194 60.076 40.9695 58.6759 40.5908 56.7826C40.1682 54.6515 41.3041 52.0801 42.2728 50.2396C42.8804 49.086 43.5497 48.1261 44.2014 47.3248C44.7737 46.6203 45.9097 47.0606 45.8569 47.9676C45.8569 47.9676 45.8569 47.9764 45.8569 47.9853C45.7776 49.6496 45.945 51.1907 46.8784 52.6261C47.6093 53.7533 48.4371 54.6339 48.4459 56.0605Z" fill="white"/>
</g>
<path d="M81.831 55.793V24.5343H70.6672V16.7196H101.368V24.5343H90.2038V55.793H81.831ZM118.129 55.793V52.4438H117.85C117.235 53.1695 116.566 53.8393 115.784 54.3975C114.445 55.4581 112.379 56.3512 109.756 56.3512C104.732 56.3512 101.383 53.002 101.383 48.5365C101.383 44.071 104.397 40.666 109.477 39.7729L118.129 38.21C117.85 36.2563 116.231 34.5817 113.384 34.5817C111.43 34.5817 109.923 35.3074 108.863 36.1447C108.249 36.5912 107.69 37.0936 107.244 37.6518L102.778 33.1863C103.56 32.2373 104.509 31.3442 105.625 30.5628C107.579 29.2231 110.314 27.8835 113.942 27.8835C120.92 27.8835 125.664 32.6839 125.664 38.7682V55.793H118.129ZM118.129 44.071V43.5128L111.989 44.6292C110.035 45.0199 108.918 46.0246 108.918 47.4201C108.918 49.1505 110.035 50.2111 112.268 50.2111C115.617 50.2111 118.129 47.6992 118.129 44.071ZM130.132 51.3274L134.597 46.5828C135.156 47.1968 135.825 47.6992 136.551 48.1458C137.835 48.983 139.621 49.6529 141.854 49.6529C144.366 49.6529 145.203 48.8156 145.203 47.6992C145.203 44.6292 131.248 45.1874 131.248 36.2563C131.248 31.7908 135.156 27.8835 142.133 27.8835C145.65 27.8835 148.273 28.944 150.059 30.0046C151.12 30.6186 152.013 31.3442 152.739 32.0699L148.273 36.8145C147.826 36.4238 147.268 36.033 146.654 35.6981C145.594 35.0841 144.087 34.5817 142.133 34.5817C140.179 34.5817 139.342 35.419 139.342 36.2563C139.342 39.3264 153.297 38.7682 153.297 47.6992C153.297 52.388 149.389 56.3512 141.854 56.3512C138.058 56.3512 135.156 55.1231 133.146 53.8393C131.974 53.1137 130.969 52.2764 130.132 51.3274ZM160.558 46.3037V35.9772H155.813V28.9998H158.325C160.39 28.9998 161.395 27.8835 161.395 25.6507V20.627H168.093V28.9998H174.233V35.9772H168.093V45.1874C168.093 47.6992 169.489 49.0947 171.721 49.0947C172.559 49.0947 173.284 48.983 173.898 48.8156C174.233 48.7598 174.512 48.6481 174.791 48.5365V55.5139C174.345 55.6813 173.843 55.793 173.34 55.9604C172.447 56.1837 171.163 56.3512 169.768 56.3512C164.186 56.3512 160.558 52.7787 160.558 46.3037ZM200.782 46.5828L204.69 51.8856C203.852 52.7229 202.847 53.4486 201.675 54.1184C199.666 55.2348 196.763 56.3512 192.968 56.3512C184.874 56.3512 178.455 49.932 178.455 42.1173C178.455 34.3026 184.874 27.8835 192.688 27.8835C200.224 27.8835 206.364 34.0235 206.364 41.5591C206.364 42.6197 206.252 43.3453 206.197 43.9593L206.085 44.9083H186.269C187.107 47.4201 189.339 49.6529 193.526 49.6529C195.926 49.6529 197.656 48.983 198.94 48.1458C199.666 47.6992 200.28 47.1968 200.782 46.5828ZM186.269 39.3264H198.549C197.712 36.8145 195.535 34.5817 192.409 34.5817C189.283 34.5817 187.107 36.8145 186.269 39.3264ZM213.359 55.793V16.7196H220.894L234.291 33.4654L247.688 16.7196H255.223V55.793H246.85V30.1162L234.291 45.7455L221.732 30.1162V55.793H213.359ZM279.208 55.793V52.4438H278.929C278.315 53.1695 277.645 53.8393 276.864 54.3975C275.524 55.4581 273.459 56.3512 270.835 56.3512C265.811 56.3512 262.462 53.002 262.462 48.5365C262.462 44.071 265.476 40.666 270.556 39.7729L279.208 38.21C278.929 36.2563 277.31 34.5817 274.463 34.5817C272.51 34.5817 271.003 35.3074 269.942 36.1447C269.328 36.5912 268.77 37.0936 268.323 37.6518L263.858 33.1863C264.639 32.2373 265.588 31.3442 266.704 30.5628C268.658 29.2231 271.393 27.8835 275.021 27.8835C281.999 27.8835 286.743 32.6839 286.743 38.7682V55.793H279.208ZM279.208 44.071V43.5128L273.068 44.6292C271.114 45.0199 269.998 46.0246 269.998 47.4201C269.998 49.1505 271.114 50.2111 273.347 50.2111C276.696 50.2111 279.208 47.6992 279.208 44.071ZM294.002 67.515V28.4416H301.538V32.349H301.817C302.375 31.5117 303.101 30.786 303.938 30.1162C305.445 28.9998 307.51 27.8835 310.469 27.8835C316.944 27.8835 322.749 33.8003 322.749 42.1173C322.749 50.4902 316.944 56.3512 310.469 56.3512C307.51 56.3512 305.445 55.2348 303.938 54.1184C303.101 53.4486 302.375 52.7229 301.817 51.8856H301.538V67.515H294.002ZM308.236 49.3738C312.143 49.3738 315.213 46.3037 315.213 42.1173C315.213 37.9309 312.143 34.8608 308.236 34.8608C304.329 34.8608 301.259 37.9309 301.259 42.1173C301.259 46.3037 304.329 49.3738 308.236 49.3738Z" fill="white"/>
<defs>
<filter id="filter0_d_12_21" x="0.496143" y="0.304737" width="53.5489" height="70.9684" filterUnits="userSpaceOnUse" color-interpolation-filters="sRGB">
<feFlood flood-opacity="0" result="BackgroundImageFix"/>
<feColorMatrix in="SourceAlpha" type="matrix" values="0 0 0 0 0 0 0 0 0 0 0 0 0 0 0 0 0 0 127 0" result="hardAlpha"/>
<feOffset dx="0.501948" dy="0.501948"/>
<feGaussianBlur stdDeviation="0.99509"/>
<feColorMatrix type="matrix" values="0 0 0 0 0.00392157 0 0 0 0 0.00392157 0 0 0 0 0.00392157 0 0 0 0.04 0"/>
<feBlend mode="normal" in2="BackgroundImageFix" result="effect1_dropShadow_12_21"/>
<feBlend mode="normal" in="SourceGraphic" in2="effect1_dropShadow_12_21" result="shape"/>
</filter>
</defs>
</svg>
